<?xml version="1.0" encoding="utf-8"?>
<!-- Generator: Adobe Illustrator 23.0.4, SVG Export Plug-In . SVG Version: 6.00 Build 0)  -->
<svg version="1.1" id="レイヤー_1" xmlns="http://www.w3.org/2000/svg" xmlns:xlink="http://www.w3.org/1999/xlink" x="0px"
	 y="0px" viewBox="0 0 151.77 103.38" style="enable-background:new 0 0 151.77 103.38;" xml:space="preserve">
<style type="text/css">
	.st0{fill:#393839;}
	.st1{fill:#BA1E37;}
	.st2{fill:#EBDE41;}
	.st3{fill:#71B3AB;stroke:#71B3AB;stroke-width:0.8315;stroke-miterlimit:10;}
</style>
<path class="st0" d="M136.68,19.94c-3.56,0-6.79-1.95-8.44-5.1c-2.42-4.65-0.62-10.4,4.03-12.82c1.35-0.7,2.87-1.08,4.38-1.08
	c3.56,0,6.79,1.96,8.43,5.11c0.51,0.98,0.85,2.04,0.99,3.12l2.18-1.13c0.21-0.11,0.43-0.16,0.65-0.16c0.51,0,1,0.28,1.26,0.76
	l1.44,2.77c0.17,0.33,0.21,0.72,0.09,1.08s-0.36,0.66-0.7,0.83l-7.94,4.12c-0.61,0.56-1.29,1.03-2,1.41
	C139.71,19.57,138.2,19.94,136.68,19.94C136.68,19.94,136.68,19.94,136.68,19.94z M136.66,6.9c-0.57,0-1.12,0.14-1.63,0.4
	c-1.73,0.91-2.41,3.06-1.51,4.8c0.61,1.17,1.82,1.9,3.15,1.9c0.57,0,1.12-0.14,1.64-0.4c1.74-0.91,2.41-3.06,1.51-4.79
	C139.2,7.63,137.99,6.9,136.66,6.9z"/>
<path class="st0" d="M140.4,17.61c0.69-0.36,1.3-0.81,1.84-1.32l8.11-4.21l-1.44-2.77l-4.24,2.19c0.21-1.59-0.04-3.26-0.84-4.79
	c-2.06-3.95-6.95-5.49-10.9-3.43c-3.95,2.06-5.49,6.95-3.43,10.91C131.56,18.14,136.45,19.67,140.4,17.61z M134.37,6.04
	c2.43-1.27,5.43-0.32,6.7,2.11c1.27,2.43,0.32,5.43-2.11,6.7c-2.43,1.27-5.43,0.33-6.7-2.1C130.99,10.32,131.94,7.31,134.37,6.04z"
	/>
<path class="st1" d="M128.56,67.39c-1.64,0-3.26-0.95-4.13-2.43c-0.82-1.4-0.82-3.04,0-4.49c3.34-5.96,3.72-11.35,1.14-16.02
	c-5.76-10.43-24.8-15.19-35.45-15.74c-2.84-0.14-4.26-2.44-4.21-4.64c0.05-2.09,1.44-4.21,3.99-4.41L81.84,4.24
	c-0.17-0.33-0.21-0.72-0.1-1.08c0.11-0.36,0.36-0.66,0.7-0.83l4.15-2.16C86.8,0.05,87.03,0,87.25,0c0.51,0,1,0.28,1.26,0.76
	l10.37,19.87c9.69,1.73,18.59,5.29,25.17,9.96l-1.51-2.89c-0.17-0.33-0.21-0.72-0.1-1.08c0.11-0.36,0.36-0.66,0.7-0.83l4.15-2.16
	c0.21-0.11,0.43-0.16,0.65-0.16c0.51,0,1,0.28,1.26,0.76l19.92,38.16c0.36,0.69,0.09,1.55-0.6,1.91l-4.15,2.17
	c-0.2,0.11-0.43,0.16-0.66,0.16c-0.14,0-0.29-0.02-0.42-0.06c-0.36-0.11-0.66-0.36-0.83-0.7l-6.36-12.19
	c-0.41,3.71-1.72,7.56-3.92,11.49C131.39,66.58,130.07,67.39,128.56,67.39z"/>
<path class="st1" d="M147.86,63.04l-19.92-38.16l-4.15,2.16l4.96,9.5c-7.16-7.82-19.53-12.75-30.87-14.65l0.04-0.02L87.25,1.42
	L83.1,3.58l9.19,17.61c-0.61-0.05-1.21-0.09-1.81-0.12c-4.02-0.21-4.31,6.02-0.3,6.23c16.93,0.87,48.34,10.89,35.47,33.86
	c-1.96,3.49,3.31,6.83,5.28,3.31c3.54-6.33,4.47-11.98,3.54-16.96l9.24,17.69L147.86,63.04z"/>
<path class="st2" d="M128.93,98.96L113.92,70.2c-0.25-0.48-0.74-0.76-1.25-0.76c-0.22,0-0.44,0.05-0.65,0.16l-4.55,2.37
	c-0.33,0.17-0.58,0.47-0.69,0.82c-0.11,0.36-0.08,0.74,0.09,1.07l15.01,28.76c0.17,0.33,0.47,0.58,0.82,0.69
	c0.14,0.04,0.28,0.06,0.42,0.06c0.22,0,0.45-0.05,0.65-0.16l4.55-2.37c0.33-0.17,0.58-0.47,0.69-0.82
	C129.14,99.67,129.1,99.29,128.93,98.96z"/>
<path class="st2" d="M128.07,93.28l2.6,4.96c0.3,0.57,1.01,0.8,1.59,0.5l4.5-2.36c0.58-0.3,0.8-1.01,0.5-1.59l-2.6-4.97
	c-0.3-0.58-1.01-0.8-1.59-0.5l-4.5,2.36C127.99,92,127.77,92.71,128.07,93.28z"/>
<path class="st3" d="M97.43,70.98c-0.46-1.64-2.09-2.88-3.8-2.88c-0.68,0-1.37,0.19-1.97,0.56c-10.76,6.49-22.79,10.46-34.79,11.48
	c-1.31,0.11-2.62,0.17-3.89,0.17c-5.54,0-9.54-1.1-11.25-3.08c-0.9-1.04-1.21-2.36-0.95-4.05c0.71-4.71,3.85-8.35,7.17-12.21
	c3.99-4.63,8.12-9.43,8-16.31c-0.08-4.27-3.36-7.74-8.36-8.83c-1.1-0.24-2.27-0.36-3.48-0.36c-5.35,0-10.8,2.26-15.87,4.69
	c0.07-0.03,0.15-0.06,0.22-0.08l-0.46,0.18l-0.1,0.06c-2.66,1.47-10.76,5.96-16.02,5.96c-2.45,0-3.64-0.92-3.98-3.09
	c-1.05-6.79,5.24-14.81,10.94-19.61c1.21-1.02,1.63-2.57,1.09-4.04c-0.55-1.52-1.94-2.53-3.44-2.53c-0.82,0-1.6,0.3-2.27,0.87
	C6.49,24.36-1.63,35.51,0.88,45.56c1.29,5.17,4.93,7.91,10.54,7.91c6.4,0,14.16-3.52,19.57-6.5l0.1-0.03
	c3.63-1.74,8.59-4.13,12.94-4.13c1.34,0,2.56,0.23,3.61,0.69c0.74,0.32,0.93,0.74,1.02,1.08c0.44,1.64-0.96,4.99-3.58,8.55
	c-0.81,1.1-1.81,2.32-2.87,3.61C36.9,63.2,29.63,72.04,35,80.6c2.96,4.71,8.83,7.1,17.47,7.1c0,0,0,0,0,0
	c2.94,0,5.73-0.27,7.57-0.47c12.04-1.33,24.44-5.67,35.85-12.56C97.25,73.85,97.84,72.44,97.43,70.98z"/>
<path class="st3" d="M92.47,70.01C81.8,76.44,69.43,80.64,57,81.7c-6.08,0.52-19.16,0.46-17.77-8.75
	c1.66-11.06,15.37-16.49,15.15-28.26c-0.08-4.08-3.5-6.54-7.13-7.34c-6.06-1.32-13.03,1.67-18.36,4.22
	c-0.05,0.02-0.1,0.02-0.15,0.05c-4.1,2.27-20.87,11.64-22.4,1.8c-1.21-7.84,6.01-16.44,11.48-21.04c2.08-1.75-0.53-5.09-2.62-3.32
	C8.37,24.82-0.02,35.5,2.39,45.19c3.18,12.76,21.13,4.12,27.93,0.37c0.03-0.01,0.06-0.01,0.09-0.02c4.98-2.4,12.26-5.89,17.85-3.47
	c4.83,2.09-0.18,9.62-1.92,11.98c-4.83,6.57-15.79,16.52-10.02,25.71c4.59,7.31,16.2,6.71,23.55,5.9
	c12.39-1.37,24.59-5.93,35.22-12.34C97.42,71.92,94.78,68.61,92.47,70.01z"/>
</svg>
