<?xml version="1.0" encoding="utf-8"?>
<!-- Generator: Adobe Illustrator 23.0.4, SVG Export Plug-In . SVG Version: 6.00 Build 0)  -->
<svg version="1.1" id="レイヤー_1" xmlns="http://www.w3.org/2000/svg" xmlns:xlink="http://www.w3.org/1999/xlink" x="0px"
	 y="0px" viewBox="0 0 126.09 25.96" style="enable-background:new 0 0 126.09 25.96;" xml:space="preserve">
<style type="text/css">
	.st0{fill:#BA1E37;}
	.st1{fill:none;}
</style>
<path class="st0" d="M27.47,25.01c-0.43,0-0.83-0.18-1.1-0.49c-0.27-0.31-0.37-0.71-0.29-1.1l2.74-11.97h-2.85
	c-0.42,0-0.83-0.18-1.1-0.48c-0.27-0.31-0.38-0.71-0.29-1.09l0.24-1.11c0.13-0.61,0.71-1.06,1.39-1.06h6c0.43,0,0.83,0.18,1.1,0.49
	c0.27,0.31,0.37,0.71,0.29,1.1l-3.35,14.67c-0.14,0.61-0.72,1.04-1.39,1.04H27.47z"/>
<path class="st0" d="M32.13,6.19c-0.83,0-1.6-0.35-2.09-0.96c-0.5-0.62-0.7-1.46-0.52-2.3c0.32-1.53,1.72-2.68,3.27-2.68
	c0.84,0,1.61,0.36,2.12,0.97c0.5,0.62,0.7,1.45,0.52,2.28C35.12,5.01,33.67,6.19,32.13,6.19z"/>
<path class="st0" d="M34.04,3.22c-0.18,0.87-1.05,1.55-1.91,1.55c-0.87,0-1.4-0.69-1.22-1.55c0.18-0.87,1.01-1.55,1.88-1.55
	C33.65,1.67,34.22,2.36,34.04,3.22z"/>
<path class="st0" d="M46.63,4.04l-6.3-0.01l0.27-1.19l7.71,0.01l-4.72,22.16h-1.4L46.63,4.04z"/>
<path class="st0" d="M117.31,1.43l-1.58,7.38c1.25-0.87,2.78-1.34,4.18-1.34c2.18,0,5.82,1.79,4.48,8.12
	c-1.31,6.15-5.26,8.33-7.88,8.33c-1.85,0-3.2-0.96-3.67-2.6l-1.11,2.6l-1.28-0.18c0.96-1.85,1.52-3.76,1.94-5.7l3.52-16.61H117.31z
	 M113.46,19.56c0.42,1.7,1.16,3.17,3.26,3.17c1.79,0,5.08-1.55,6.24-7.05c1.25-5.79-1.88-7.02-3.67-7.02
	c-1.34,0-2.69,0.69-3.85,1.55L113.46,19.56z"/>
<path class="st1" d="M96.6,19.31c-0.16,0.73-0.09,1.44,0.18,1.77c0.05,0.07,0.18,0.23,0.61,0.23c1.26,0,2.42-1.13,3.49-2.41
	l0.57-2.67c-0.55-0.21-1.09-0.32-1.61-0.32C97.48,15.9,96.77,18.51,96.6,19.31z"/>
<path class="st0" d="M105.71,7.76c-0.62-0.78-1.81-1.71-3.99-1.71c-1.77,0-3.4,0.5-4.9,1.04c-0.07,0.03-0.13,0.07-0.19,0.1L97.94,11
	c1.27-0.52,2.33-0.92,3.43-0.92c0.56,0,0.84,0.1,0.91,0.19c0.11,0.14,0.28,0.59,0.07,2.06c-0.76-0.25-1.66-0.46-2.59-0.46
	c-3.45,0-6.46,2.77-7.33,6.74c-0.43,2.01-0.1,3.8,0.91,5.06c0.62,0.76,1.78,1.67,3.82,1.67c1.42,0,2.57-0.41,3.56-1.04
	c0.17,0.61,0.73,1.04,1.36,1.04c0.06,0,0.13,0,0.19-0.01l1.31-0.18c0.76-0.1,1.3-0.8,1.22-1.56c-0.14-1.19-0.22-2.47,0.09-3.77
	c0.52-2.09,1.02-4.18,1.51-6.28l0.05-0.19C107.15,10.39,106.44,8.67,105.71,7.76z M97.39,21.31c-0.43,0-0.55-0.16-0.61-0.23
	c-0.27-0.33-0.34-1.04-0.18-1.77c0.16-0.8,0.88-3.41,3.24-3.41c0.52,0,1.06,0.11,1.61,0.32l-0.57,2.67
	C99.82,20.18,98.65,21.31,97.39,21.31z"/>
<path class="st1" d="M119.28,10.08c-0.74,0-1.62,0.33-2.58,0.97l-1.79,8.48c0.42,1.5,0.95,1.78,1.8,1.78c1.25,0,3.86-1.24,4.86-5.92
	c0.45-2.06,0.31-3.6-0.38-4.47C120.57,10.16,119.65,10.08,119.28,10.08z"/>
<path class="st0" d="M124.59,8.28c-1.13-1.4-2.88-2.23-4.68-2.23c-0.73,0-1.47,0.11-2.2,0.31l0.99-4.62
	c0.09-0.42-0.01-0.86-0.28-1.19c-0.27-0.33-0.67-0.53-1.1-0.53h-1.4c-0.67,0-1.25,0.47-1.39,1.12L111,17.74
	c-0.46,2.15-1.04,3.85-1.82,5.35c-0.04,0.08-0.75,1.21-0.78,1.3l3.63,1.57c0.13-0.13,0.92-1.31,0.99-1.48l0.1-0.23
	c0.89,0.7,2.05,1.09,3.38,1.09c3.61,0,7.88-2.92,9.27-9.46C126.63,11.86,125.6,9.53,124.59,8.28z M121.57,15.38
	c-0.99,4.69-3.61,5.92-4.86,5.92c-0.85,0-1.38-0.28-1.8-1.78l1.79-8.48c0.96-0.64,1.84-0.97,2.58-0.97c0.37,0,1.29,0.08,1.9,0.84
	C121.88,11.78,122.02,13.32,121.57,15.38z"/>
<path class="st0" d="M88.86,21.51c-0.27-0.34-0.68-0.53-1.11-0.53h-7.69l4.25-19.89c0.02-0.09,0.02-0.18,0.03-0.27h-4.27L75.25,23.3
	c-0.09,0.42,0.02,0.85,0.29,1.19c0.27,0.33,0.67,0.53,1.1,0.53h10.84c0.66,0,1.24-0.46,1.38-1.11l0.27-1.19
	C89.23,22.29,89.12,21.85,88.86,21.51z"/>
<path class="st0" d="M49.4,0.54c-0.27-0.33-0.67-0.53-1.1-0.53L40.76,0l-0.83,3.97c0.13,0.04,0.26,0.06,0.39,0.06l4.55,0.01
	L40.79,23.3c-0.09,0.42,0.02,0.85,0.29,1.19c0.27,0.33,0.67,0.53,1.1,0.53h1.4c0.67,0,1.25-0.47,1.39-1.12l4.72-22.16
	C49.78,1.31,49.67,0.87,49.4,0.54z"/>
<path class="st0" d="M20.3,1.85c-0.27-0.33-0.68-0.53-1.11-0.53h-1.57c-0.49,0-0.95,0.25-1.21,0.67l-5.56,8.88l-1.7-8.41
	C9.02,1.8,8.43,1.32,7.75,1.32H6.19c-0.67,0-1.26,0.47-1.4,1.13L0,25.01h4.34L7,12.43l1.13,5.51c0.12,0.57,0.57,1.01,1.14,1.12
	c0.09,0.02,0.17,0.02,0.26,0.02c0.49,0,0.94-0.25,1.21-0.67l3.4-5.4l-2.55,11.99h4.34l4.67-21.96C20.68,2.63,20.57,2.19,20.3,1.85z"
	/>
<path class="st0" d="M66.89,8.01c1.34-1.6,3.94-5.01,4.98-6.34c0.07-0.09,0.13-0.2,0.17-0.3h-5.17c-0.82,1.17-3.18,4.31-4.19,5.44
	c-0.54,0.59-1.77,1.95-3.02,2.85l1.77-8.37h-4.29l-4.68,22c-0.09,0.42,0.02,0.85,0.29,1.19c0.27,0.33,0.67,0.53,1.1,0.53h1.4
	c0.67,0,1.25-0.47,1.39-1.12l1.65-7.81l4.98,8.25c0.26,0.43,0.72,0.69,1.21,0.69h1.94c0.52,0,0.99-0.28,1.24-0.73
	c0.25-0.45,0.23-1-0.04-1.44l-6.09-9.7C63.8,11.65,65.56,9.66,66.89,8.01z"/>
</svg>
