<?xml version="1.0" encoding="utf-8"?>
<!-- Generator: Adobe Illustrator 23.0.4, SVG Export Plug-In . SVG Version: 6.00 Build 0)  -->
<svg version="1.1" id="レイヤー_1" xmlns="http://www.w3.org/2000/svg" xmlns:xlink="http://www.w3.org/1999/xlink" x="0px"
	 y="0px" viewBox="0 0 64.04 13.53" style="enable-background:new 0 0 64.04 13.53;" xml:space="preserve">
<g>
	<path d="M6.18,13.4l-3.09-2.33C2.43,10.6,1.8,10.26,1.2,10.06L0,9.75l0.32-1.39l1.32,0.32C2.4,8.9,3.1,9.25,3.75,9.72l3.33,2.47
		L6.18,13.4z M6.6,3l-0.7,1.32L5.11,3.95C4.7,3.78,4.31,3.7,3.93,3.7H0.13V2.15h3.91C4.55,2.15,5.07,2.26,5.61,2.5L6.6,3z
		 M5.21,8.08l-0.8-0.42C3.7,7.35,2.93,7.11,2.08,6.94L1.04,6.82l0.13-1.46l1.25,0.1C3.28,5.6,4.09,5.84,4.85,6.19l0.86,0.45
		L5.21,8.08z"/>
	<path d="M13.19,13.13l0.02-10.98h1.45v10.98H13.19z M18.22,11.31l1.33-2.78l1.29,0.61l-1.51,2.99c-0.3,0.43-0.6,0.69-0.91,0.81
		c-0.31,0.11-0.63,0.17-0.97,0.17h-1.22V2.14h1.48v9.53C17.86,11.66,18.03,11.55,18.22,11.31z"/>
	<path d="M32.64,3.68h-2.58l-1.75,4.53L26.92,7.7l1.54-4c0.35-0.92,0.62-1.82,0.79-2.71L29.44,0l1.48,0.17L30.6,2.15h3.66v3.06
		c-0.02,1.4-0.36,2.51-1.02,3.31l-3.97,5.01l-1.24-0.95l3.98-5.07c0.37-0.5,0.57-1.06,0.6-1.69L32.64,3.68z"/>
	<path d="M40.73,6.82V5.25h6.9v2.76c-0.05,0.82-0.38,1.5-0.98,2.04l-3.37,3.46l-1.15-1.11l3.38-3.5c0.31-0.27,0.49-0.64,0.54-1.12
		V6.82H40.73z M41.42,3.7V2.15h5.52V3.7H41.42z"/>
	<path d="M58.43,3.7v9.42h-1.48V3.7h-2.62V2.14h2.62V0.21h1.48v1.93h2.68V3.7H58.43z M54.53,12.02V5.59h1.48v6.43H54.53z M59.7,7.78
		c-0.02-0.45-0.14-0.81-0.38-1.09l-0.43-0.5l1.08-0.91l0.61,0.62c0.4,0.5,0.62,1.06,0.65,1.66v4.43H59.7V7.78z M61.78,1.16h0.74
		v3.48h-0.74V1.16z M63.3,1.16h0.74v3.48H63.3V1.16z"/>
</g>
</svg>
