<?xml version="1.0" encoding="utf-8"?>
<!-- Generator: Adobe Illustrator 23.0.4, SVG Export Plug-In . SVG Version: 6.00 Build 0)  -->
<svg version="1.1" id="レイヤー_1" xmlns="http://www.w3.org/2000/svg" xmlns:xlink="http://www.w3.org/1999/xlink" x="0px"
	 y="0px" viewBox="0 0 216.13 157.8" style="enable-background:new 0 0 216.13 157.8;" xml:space="preserve">
<style type="text/css">
	.st0{fill:#71B3AB;stroke:#71B3AB;stroke-width:1.8342;stroke-miterlimit:10;}
</style>
<path class="st0" d="M1.19,120.02c1.01-3.62,4.61-6.34,8.37-6.34c1.51,0,3.02,0.43,4.35,1.24c23.73,14.31,50.27,23.07,76.76,25.32
	c2.89,0.25,5.78,0.37,8.58,0.37c12.23,0,21.05-2.42,24.83-6.81c1.97-2.29,2.66-5.21,2.11-8.93c-1.56-10.38-8.49-18.43-15.83-26.94
	c-8.81-10.22-17.92-20.8-17.64-35.98c0.17-9.42,7.41-17.07,18.43-19.49c2.42-0.53,5-0.8,7.67-0.8c11.8,0,23.82,4.98,35.02,10.35
	c-0.16-0.07-0.32-0.14-0.48-0.17l1.02,0.39l0.23,0.13c5.87,3.25,23.75,13.14,35.34,13.14c5.41,0,8.04-2.04,8.78-6.82
	c2.32-14.98-11.55-32.66-24.14-43.26c-2.67-2.25-3.59-5.67-2.4-8.92c1.22-3.34,4.27-5.59,7.6-5.59c1.8,0,3.54,0.66,5.02,1.91
	c17.02,14.33,34.92,38.93,29.39,61.11c-2.85,11.41-10.88,17.44-23.24,17.44c-14.12,0-31.23-7.77-43.17-14.33l-0.22-0.07
	c-8-3.85-18.96-9.12-28.55-9.12c-2.96,0-5.64,0.51-7.97,1.52c-1.62,0.7-2.06,1.64-2.26,2.38c-0.98,3.61,2.12,11.02,7.89,18.86
	c1.78,2.42,3.99,5.11,6.34,7.96c11.71,14.24,27.76,33.75,15.91,52.63c-6.52,10.39-19.48,15.66-38.53,15.66c0,0,0,0,0,0
	c-6.49,0-12.64-0.6-16.71-1.04c-26.57-2.93-53.92-12.51-79.09-27.7C1.6,126.34,0.3,123.23,1.19,120.02z"/>
</svg>
