<?xml version="1.0" encoding="utf-8"?>
<!-- Generator: Adobe Illustrator 23.0.4, SVG Export Plug-In . SVG Version: 6.00 Build 0)  -->
<svg version="1.1" id="レイヤー_1" xmlns="http://www.w3.org/2000/svg" xmlns:xlink="http://www.w3.org/1999/xlink" x="0px"
	 y="0px" viewBox="0 0 24.6 19" style="enable-background:new 0 0 24.6 19;" xml:space="preserve">
<style type="text/css">
	.st0{fill:#393839;}
</style>
<path class="st0" d="M24.44,10.47L23,7.71c-0.25-0.48-0.75-0.76-1.26-0.76c-0.22,0-0.44,0.05-0.65,0.16l-2.18,1.13
	c-0.14-1.08-0.48-2.14-0.99-3.12C16.28,1.96,13.05,0,9.49,0C7.97,0,6.45,0.37,5.1,1.08C0.46,3.5-1.35,9.25,1.08,13.9
	C2.72,17.04,5.95,19,9.51,19c0,0,0,0,0,0c1.52,0,3.03-0.37,4.38-1.08c0.72-0.38,1.39-0.85,2-1.41l7.94-4.12
	c0.33-0.17,0.58-0.47,0.7-0.83S24.62,10.81,24.44,10.47z M11.14,12.65c-0.51,0.27-1.06,0.4-1.64,0.4c-1.33,0-2.54-0.73-3.15-1.9
	c-0.9-1.74-0.23-3.89,1.51-4.8c0.51-0.27,1.06-0.4,1.63-0.4c1.33,0,2.54,0.73,3.16,1.91C13.55,9.59,12.88,11.74,11.14,12.65z"/>
</svg>
